<svg width="20" height="20" viewBox="0 0 20 20" fill="none" xmlns="http://www.w3.org/2000/svg">
<path d="M3.3335 7.66667C3.3335 6.73325 3.3335 6.26654 3.51515 5.91002C3.67494 5.59641 3.92991 5.34144 4.24351 5.18166C4.60003 5 5.06674 5 6.00016 5H14.0002C14.9336 5 15.4003 5 15.7568 5.18166C16.0704 5.34144 16.3254 5.59641 16.4852 5.91002C16.6668 6.26654 16.6668 6.73325 16.6668 7.66667V14.8333C16.6668 15.7668 16.6668 16.2335 16.4852 16.59C16.3254 16.9036 16.0704 17.1586 15.7568 17.3183C15.4003 17.5 14.9336 17.5 14.0002 17.5H6.00016C5.06674 17.5 4.60003 17.5 4.24351 17.3183C3.92991 17.1586 3.67494 16.9036 3.51515 16.59C3.3335 16.2335 3.3335 15.7668 3.3335 14.8333V7.66667Z" stroke="#000000"/>
<path d="M7.5 4.99999V4.58333C7.5 3.20262 8.61929 2.08333 10 2.08333C11.3807 2.08333 12.5 3.20262 12.5 4.58333V4.99999" stroke="#000000"/>
</svg>
