<svg width="148" height="38" viewBox="0 0 148 38" fill="none" xmlns="http://www.w3.org/2000/svg">
<g clip-path="url(#clip0_1080_32734)">
<g clip-path="url(#clip1_1080_32734)">
<path d="M18 36.5C27.665 36.5 35.5 28.665 35.5 19C35.5 9.33502 27.665 1.5 18 1.5C8.33502 1.5 0.5 9.33502 0.5 19C0.5 28.665 8.33502 36.5 18 36.5Z" fill="black"></path>
<path d="M18.6234 5.88266C15.6681 5.77998 12.7673 6.69634 10.4072 8.47813C10.1784 8.65011 9.99066 8.87082 9.85765 9.12429C9.72464 9.37776 9.64967 9.65763 9.63815 9.94365C9.62663 10.2297 9.67887 10.5147 9.79107 10.778C9.90327 11.0413 10.0726 11.2764 10.2869 11.4663C10.9672 12.1094 12.015 12.1597 12.7544 11.5855C14.5648 10.1765 16.8376 9.49712 19.1243 9.68137C21.411 9.86562 23.5457 10.9001 25.1072 12.5808C25.7525 13.248 25.7722 14.2991 25.1531 14.9903C24.9975 15.1572 24.8106 15.2918 24.603 15.3864C24.3953 15.481 24.1711 15.5338 23.9431 15.5417C23.715 15.5496 23.4877 15.5125 23.274 15.4326C23.0603 15.3526 22.8645 15.2313 22.6977 15.0756L22.6134 14.9903C21.8348 14.1365 20.8161 13.5381 19.6912 13.2736C18.5663 13.0092 17.3877 13.0912 16.3102 13.5087C15.2327 13.9262 14.3067 14.6598 13.6537 15.6132C13.0007 16.5666 12.6512 17.6951 12.6512 18.8507C12.6512 20.0063 13.0007 21.1348 13.6537 22.0882C14.3067 23.0416 15.2327 23.7752 16.3102 24.1927C17.3877 24.6103 18.5663 24.6922 19.6912 24.4278C20.8161 24.1633 21.8348 23.5649 22.6134 22.7111C22.8629 22.432 23.1974 22.2428 23.5652 22.173C23.9329 22.1033 24.3135 22.1567 24.6478 22.325C24.8857 22.4443 25.0927 22.617 25.2528 22.8296C25.4129 23.0422 25.5216 23.2889 25.5706 23.5504C25.6195 23.812 25.6073 24.0814 25.5348 24.3374C25.4624 24.5935 25.3318 24.8294 25.1531 25.0266C23.598 26.7289 21.4606 27.7854 19.1638 27.9872C16.8669 28.1889 14.578 27.5211 12.75 26.1159C12.3883 25.8404 11.9409 25.7013 11.4867 25.7233C11.0324 25.7453 10.6006 25.927 10.2672 26.2363C10.0544 26.4313 9.88739 26.671 9.7783 26.9383C9.66921 27.2056 9.62072 27.4937 9.6363 27.782C9.65189 28.0702 9.73116 28.3514 9.86843 28.6054C10.0057 28.8593 10.1975 29.0797 10.4302 29.2506C12.0617 30.4606 13.9547 31.2702 15.9565 31.6142C17.9584 31.9582 20.0131 31.827 21.9549 31.2311C23.8967 30.6352 25.6714 29.5914 27.1357 28.1837C28.6 26.776 29.7131 25.044 30.3851 23.1271C31.0571 21.2103 31.2693 19.1624 31.0045 17.1485C30.7397 15.1347 30.0054 13.2112 28.8608 11.5332C27.7161 9.85526 26.1932 8.46976 24.4148 7.48844C22.6364 6.50712 20.6522 5.95745 18.6223 5.88375L18.6234 5.88266ZM18.3828 22.057C17.9615 22.0555 17.5447 21.9709 17.1561 21.8082C16.7675 21.6456 16.4147 21.4079 16.118 21.1089C15.8212 20.8099 15.5862 20.4554 15.4265 20.0656C15.2667 19.6758 15.1853 19.2583 15.1869 18.837C15.1885 18.4158 15.273 17.9989 15.4357 17.6103C15.5983 17.2217 15.836 16.8689 16.135 16.5722C16.434 16.2754 16.7885 16.0404 17.1783 15.8807C17.5681 15.7209 17.9856 15.6395 18.4069 15.6411C19.2577 15.6441 20.0724 15.985 20.6719 16.5888C21.2713 17.1926 21.6064 18.0097 21.6034 18.8605C21.6003 19.7114 21.2594 20.5261 20.6556 21.1256C20.0519 21.725 19.2347 22.0601 18.3839 22.057H18.3828Z" fill="white"></path>
</g>
<path d="M44.5816 19.2C44.5816 17.2773 45.0109 15.56 45.8696 14.048C46.7469 12.5173 47.9322 11.332 49.4256 10.492C50.9376 9.63333 52.6269 9.204 54.4936 9.204C56.6776 9.204 58.5909 9.764 60.2336 10.884C61.8762 12.004 63.0242 13.5533 63.6776 15.532H59.1696C58.7216 14.5987 58.0869 13.8987 57.2656 13.432C56.4629 12.9653 55.5296 12.732 54.4656 12.732C53.3269 12.732 52.3096 13.0027 51.4136 13.544C50.5362 14.0667 49.8456 14.8133 49.3416 15.784C48.8562 16.7547 48.6136 17.8933 48.6136 19.2C48.6136 20.488 48.8562 21.6267 49.3416 22.616C49.8456 23.5867 50.5362 24.3427 51.4136 24.884C52.3096 25.4067 53.3269 25.668 54.4656 25.668C55.5296 25.668 56.4629 25.4347 57.2656 24.968C58.0869 24.4827 58.7216 23.7733 59.1696 22.84H63.6776C63.0242 24.8373 61.8762 26.396 60.2336 27.516C58.6096 28.6173 56.6962 29.168 54.4936 29.168C52.6269 29.168 50.9376 28.748 49.4256 27.908C47.9322 27.0493 46.7469 25.864 45.8696 24.352C45.0109 22.84 44.5816 21.1227 44.5816 19.2ZM69.0138 11.64C68.3231 11.64 67.7444 11.4253 67.2778 10.996C66.8298 10.548 66.6058 9.99733 66.6058 9.344C66.6058 8.69067 66.8298 8.14933 67.2778 7.72C67.7444 7.272 68.3231 7.048 69.0138 7.048C69.7044 7.048 70.2738 7.272 70.7218 7.72C71.1884 8.14933 71.4218 8.69067 71.4218 9.344C71.4218 9.99733 71.1884 10.548 70.7218 10.996C70.2738 11.4253 69.7044 11.64 69.0138 11.64ZM70.9458 13.488V29H67.0258V13.488H70.9458ZM80.7547 29.252C79.4854 29.252 78.3467 29.028 77.3387 28.58C76.3307 28.1133 75.5281 27.488 74.9307 26.704C74.3521 25.92 74.0347 25.052 73.9787 24.1H77.9267C78.0014 24.6973 78.2907 25.192 78.7947 25.584C79.3174 25.976 79.9614 26.172 80.7267 26.172C81.4734 26.172 82.0521 26.0227 82.4627 25.724C82.8921 25.4253 83.1067 25.0427 83.1067 24.576C83.1067 24.072 82.8454 23.6987 82.3227 23.456C81.8187 23.1947 81.0067 22.9147 79.8867 22.616C78.7294 22.336 77.7774 22.0467 77.0307 21.748C76.3027 21.4493 75.6681 20.992 75.1267 20.376C74.6041 19.76 74.3427 18.9293 74.3427 17.884C74.3427 17.0253 74.5854 16.2413 75.0707 15.532C75.5747 14.8227 76.2841 14.2627 77.1987 13.852C78.1321 13.4413 79.2241 13.236 80.4747 13.236C82.3227 13.236 83.7974 13.7027 84.8987 14.636C86.0001 15.5507 86.6067 16.792 86.7187 18.36H82.9667C82.9107 17.744 82.6494 17.2587 82.1827 16.904C81.7347 16.5307 81.1281 16.344 80.3627 16.344C79.6534 16.344 79.1027 16.4747 78.7107 16.736C78.3374 16.9973 78.1507 17.3613 78.1507 17.828C78.1507 18.3507 78.4121 18.752 78.9347 19.032C79.4574 19.2933 80.2694 19.564 81.3707 19.844C82.4907 20.124 83.4147 20.4133 84.1427 20.712C84.8707 21.0107 85.4961 21.4773 86.0187 22.112C86.5601 22.728 86.8401 23.5493 86.8587 24.576C86.8587 25.472 86.6067 26.2747 86.1027 26.984C85.6174 27.6933 84.9081 28.2533 83.9747 28.664C83.0601 29.056 81.9867 29.252 80.7547 29.252ZM104.497 20.908C104.497 21.468 104.459 21.972 104.385 22.42H93.0445C93.1379 23.54 93.5299 24.4173 94.2205 25.052C94.9112 25.6867 95.7605 26.004 96.7685 26.004C98.2245 26.004 99.2605 25.3787 99.8765 24.128H104.105C103.657 25.6213 102.798 26.8533 101.529 27.824C100.259 28.776 98.7005 29.252 96.8525 29.252C95.3592 29.252 94.0152 28.9253 92.8205 28.272C91.6445 27.6 90.7205 26.6573 90.0485 25.444C89.3952 24.2307 89.0685 22.8307 89.0685 21.244C89.0685 19.6387 89.3952 18.2293 90.0485 17.016C90.7019 15.8027 91.6165 14.8693 92.7925 14.216C93.9685 13.5627 95.3219 13.236 96.8525 13.236C98.3272 13.236 99.6432 13.5533 100.801 14.188C101.977 14.8227 102.882 15.728 103.517 16.904C104.17 18.0613 104.497 19.396 104.497 20.908ZM100.437 19.788C100.418 18.78 100.054 17.9773 99.3445 17.38C98.6352 16.764 97.7672 16.456 96.7405 16.456C95.7699 16.456 94.9485 16.7547 94.2765 17.352C93.6232 17.9307 93.2219 18.7427 93.0725 19.788H100.437ZM106.35 21.244C106.35 19.6387 106.676 18.2387 107.33 17.044C107.983 15.8307 108.888 14.8973 110.046 14.244C111.203 13.572 112.528 13.236 114.022 13.236C115.944 13.236 117.531 13.7213 118.782 14.692C120.051 15.644 120.9 16.988 121.33 18.724H117.102C116.878 18.052 116.495 17.5293 115.954 17.156C115.431 16.764 114.778 16.568 113.994 16.568C112.874 16.568 111.987 16.9787 111.334 17.8C110.68 18.6027 110.354 19.7507 110.354 21.244C110.354 22.7187 110.68 23.8667 111.334 24.688C111.987 25.4907 112.874 25.892 113.994 25.892C115.58 25.892 116.616 25.1827 117.102 23.764H121.33C120.9 25.444 120.051 26.7787 118.782 27.768C117.512 28.7573 115.926 29.252 114.022 29.252C112.528 29.252 111.203 28.9253 110.046 28.272C108.888 27.6 107.983 26.6667 107.33 25.472C106.676 24.2587 106.35 22.8493 106.35 21.244ZM131.09 29.252C129.596 29.252 128.252 28.9253 127.058 28.272C125.863 27.6 124.92 26.6573 124.23 25.444C123.558 24.2307 123.222 22.8307 123.222 21.244C123.222 19.6573 123.567 18.2573 124.258 17.044C124.967 15.8307 125.928 14.8973 127.142 14.244C128.355 13.572 129.708 13.236 131.202 13.236C132.695 13.236 134.048 13.572 135.262 14.244C136.475 14.8973 137.427 15.8307 138.118 17.044C138.827 18.2573 139.182 19.6573 139.182 21.244C139.182 22.8307 138.818 24.2307 138.09 25.444C137.38 26.6573 136.41 27.6 135.178 28.272C133.964 28.9253 132.602 29.252 131.09 29.252ZM131.09 25.836C131.799 25.836 132.462 25.668 133.078 25.332C133.712 24.9773 134.216 24.4547 134.59 23.764C134.963 23.0733 135.15 22.2333 135.15 21.244C135.15 19.7693 134.758 18.64 133.974 17.856C133.208 17.0533 132.266 16.652 131.146 16.652C130.026 16.652 129.083 17.0533 128.318 17.856C127.571 18.64 127.198 19.7693 127.198 21.244C127.198 22.7187 127.562 23.8573 128.29 24.66C129.036 25.444 129.97 25.836 131.09 25.836ZM143.793 29.196C143.084 29.196 142.496 28.9813 142.029 28.552C141.581 28.104 141.357 27.5533 141.357 26.9C141.357 26.2467 141.581 25.7053 142.029 25.276C142.496 24.828 143.084 24.604 143.793 24.604C144.484 24.604 145.053 24.828 145.501 25.276C145.949 25.7053 146.173 26.2467 146.173 26.9C146.173 27.5533 145.949 28.104 145.501 28.552C145.053 28.9813 144.484 29.196 143.793 29.196Z" fill="black"></path>
</g>
<defs>
<clipPath id="clip0_1080_32734">
<rect width="147" height="37" fill="white" transform="translate(0.5 0.5)"></rect>
</clipPath>
<clipPath id="clip1_1080_32734">
<rect width="35" height="35" fill="white" transform="translate(0.5 1.5)"></rect>
</clipPath>
</defs>
</svg>
